<mxfile host="app.diagrams.net" modified="2021-07-16T15:40:44.583Z" agent="5.0 (Macintosh; Intel Mac OS X 10_15_7) AppleWebKit/537.36 (KHTML, like Gecko) Chrome/91.0.4472.114 Safari/537.36" etag="Z00e8zXrAMVDKZFJzUjg" version="14.8.5" type="github">
  <diagram id="GnEKVIrZceJ-PlaxJCVe" name="Page-1">
    <mxGraphModel dx="4001" dy="2500" grid="1" gridSize="10" guides="1" tooltips="1" connect="1" arrows="1" fold="1" page="1" pageScale="1" pageWidth="850" pageHeight="1100" math="0" shadow="0">
      <root>
        <mxCell id="0" />
        <mxCell id="1" parent="0" />
        <mxCell id="phSNjqwj3Z0JrSfN2W4I-1" value="AWS Cloud" style="points=[[0,0],[0.25,0],[0.5,0],[0.75,0],[1,0],[1,0.25],[1,0.5],[1,0.75],[1,1],[0.75,1],[0.5,1],[0.25,1],[0,1],[0,0.75],[0,0.5],[0,0.25]];outlineConnect=0;gradientColor=none;html=1;whiteSpace=wrap;fontSize=12;fontStyle=0;shape=mxgraph.aws4.group;grIcon=mxgraph.aws4.group_aws_cloud_alt;strokeColor=#232F3E;verticalAlign=top;align=left;spacingLeft=30;fontColor=#232F3E;dashed=0;" parent="1" vertex="1">
          <mxGeometry x="-580" y="-660" width="3430" height="2430" as="geometry" />
        </mxCell>
        <mxCell id="phSNjqwj3Z0JrSfN2W4I-2" value="us-east-2 --- Ohio Region" style="points=[[0,0],[0.25,0],[0.5,0],[0.75,0],[1,0],[1,0.25],[1,0.5],[1,0.75],[1,1],[0.75,1],[0.5,1],[0.25,1],[0,1],[0,0.75],[0,0.5],[0,0.25]];outlineConnect=0;gradientColor=none;html=1;whiteSpace=wrap;fontSize=12;fontStyle=0;shape=mxgraph.aws4.group;grIcon=mxgraph.aws4.group_region;strokeColor=#147EBA;fillColor=none;verticalAlign=top;align=left;spacingLeft=30;fontColor=#147EBA;dashed=1;" parent="1" vertex="1">
          <mxGeometry x="-340" y="110" width="1090" height="1560" as="geometry" />
        </mxCell>
        <mxCell id="phSNjqwj3Z0JrSfN2W4I-4" value="Network Account" style="points=[[0,0],[0.25,0],[0.5,0],[0.75,0],[1,0],[1,0.25],[1,0.5],[1,0.75],[1,1],[0.75,1],[0.5,1],[0.25,1],[0,1],[0,0.75],[0,0.5],[0,0.25]];outlineConnect=0;gradientColor=none;html=1;whiteSpace=wrap;fontSize=12;fontStyle=0;shape=mxgraph.aws4.group;grIcon=mxgraph.aws4.group_aws_cloud;strokeColor=#232F3E;fillColor=none;verticalAlign=top;align=left;spacingLeft=30;fontColor=#232F3E;dashed=0;" parent="1" vertex="1">
          <mxGeometry x="-275" y="430" width="2230" height="1170" as="geometry" />
        </mxCell>
        <mxCell id="phSNjqwj3Z0JrSfN2W4I-3" value="us-east-1 -- Northern VA Region" style="points=[[0,0],[0.25,0],[0.5,0],[0.75,0],[1,0],[1,0.25],[1,0.5],[1,0.75],[1,1],[0.75,1],[0.5,1],[0.25,1],[0,1],[0,0.75],[0,0.5],[0,0.25]];outlineConnect=0;gradientColor=none;html=1;whiteSpace=wrap;fontSize=12;fontStyle=0;shape=mxgraph.aws4.group;grIcon=mxgraph.aws4.group_region;strokeColor=#147EBA;fillColor=none;verticalAlign=top;align=left;spacingLeft=30;fontColor=#147EBA;dashed=1;" parent="1" vertex="1">
          <mxGeometry x="950" y="110" width="1170" height="1560" as="geometry" />
        </mxCell>
        <mxCell id="3-DGFyrarjnQaaBnUxov-35" value="lc-security VPC" style="points=[[0,0],[0.25,0],[0.5,0],[0.75,0],[1,0],[1,0.25],[1,0.5],[1,0.75],[1,1],[0.75,1],[0.5,1],[0.25,1],[0,1],[0,0.75],[0,0.5],[0,0.25]];outlineConnect=0;gradientColor=none;html=1;whiteSpace=wrap;fontSize=12;fontStyle=0;shape=mxgraph.aws4.group;grIcon=mxgraph.aws4.group_vpc;strokeColor=#248814;fillColor=none;verticalAlign=top;align=left;spacingLeft=30;fontColor=#AAB7B8;dashed=0;" vertex="1" parent="1">
          <mxGeometry x="1500" y="1050" width="410" height="310" as="geometry" />
        </mxCell>
        <mxCell id="3-DGFyrarjnQaaBnUxov-37" value="Az-a" style="fillColor=none;strokeColor=#147EBA;dashed=1;verticalAlign=top;fontStyle=0;fontColor=#147EBA;" vertex="1" parent="1">
          <mxGeometry x="1530" y="1080" width="160" height="220" as="geometry" />
        </mxCell>
        <mxCell id="3-DGFyrarjnQaaBnUxov-23" value="TGW-us-east-2" style="fillColor=none;strokeColor=#5A6C86;dashed=1;verticalAlign=top;fontStyle=0;fontColor=#5A6C86;" vertex="1" parent="1">
          <mxGeometry x="265" y="1120" width="310" height="407" as="geometry" />
        </mxCell>
        <mxCell id="3-DGFyrarjnQaaBnUxov-6" value="" style="rounded=0;whiteSpace=wrap;html=1;" vertex="1" parent="1">
          <mxGeometry x="575" y="1960" width="530" height="210" as="geometry" />
        </mxCell>
        <mxCell id="3-DGFyrarjnQaaBnUxov-2" value="" style="outlineConnect=0;fontColor=#232F3E;gradientColor=none;fillColor=#5A30B5;strokeColor=none;dashed=0;verticalLabelPosition=bottom;verticalAlign=top;align=center;html=1;fontSize=12;fontStyle=0;aspect=fixed;pointerEvents=1;shape=mxgraph.aws4.gateway;" vertex="1" parent="1">
          <mxGeometry x="820" y="1460" width="76" height="78" as="geometry" />
        </mxCell>
        <mxCell id="3-DGFyrarjnQaaBnUxov-3" value="" style="points=[[0,0,0],[0.25,0,0],[0.5,0,0],[0.75,0,0],[1,0,0],[0,1,0],[0.25,1,0],[0.5,1,0],[0.75,1,0],[1,1,0],[0,0.25,0],[0,0.5,0],[0,0.75,0],[1,0.25,0],[1,0.5,0],[1,0.75,0]];outlineConnect=0;fontColor=#232F3E;gradientColor=#945DF2;gradientDirection=north;fillColor=#5A30B5;strokeColor=#ffffff;dashed=0;verticalLabelPosition=bottom;verticalAlign=top;align=center;html=1;fontSize=12;fontStyle=0;aspect=fixed;shape=mxgraph.aws4.resourceIcon;resIcon=mxgraph.aws4.transit_gateway;" vertex="1" parent="1">
          <mxGeometry x="386" y="1300" width="78" height="78" as="geometry" />
        </mxCell>
        <mxCell id="3-DGFyrarjnQaaBnUxov-4" value="" style="points=[[0,0,0],[0.25,0,0],[0.5,0,0],[0.75,0,0],[1,0,0],[0,1,0],[0.25,1,0],[0.5,1,0],[0.75,1,0],[1,1,0],[0,0.25,0],[0,0.5,0],[0,0.75,0],[1,0.25,0],[1,0.5,0],[1,0.75,0]];outlineConnect=0;fontColor=#232F3E;gradientColor=#945DF2;gradientDirection=north;fillColor=#5A30B5;strokeColor=#ffffff;dashed=0;verticalLabelPosition=bottom;verticalAlign=top;align=center;html=1;fontSize=12;fontStyle=0;aspect=fixed;shape=mxgraph.aws4.resourceIcon;resIcon=mxgraph.aws4.transit_gateway;" vertex="1" parent="1">
          <mxGeometry x="1236" y="1300" width="78" height="78" as="geometry" />
        </mxCell>
        <mxCell id="3-DGFyrarjnQaaBnUxov-5" value="" style="points=[[0,0,0],[0.25,0,0],[0.5,0,0],[0.75,0,0],[1,0,0],[0,1,0],[0.25,1,0],[0.5,1,0],[0.75,1,0],[1,1,0],[0,0.25,0],[0,0.5,0],[0,0.75,0],[1,0.25,0],[1,0.5,0],[1,0.75,0]];outlineConnect=0;fontColor=#232F3E;gradientColor=#945DF2;gradientDirection=north;fillColor=#5A30B5;strokeColor=#ffffff;dashed=0;verticalLabelPosition=bottom;verticalAlign=top;align=center;html=1;fontSize=12;fontStyle=0;aspect=fixed;shape=mxgraph.aws4.resourceIcon;resIcon=mxgraph.aws4.direct_connect;" vertex="1" parent="1">
          <mxGeometry x="818" y="1920" width="78" height="78" as="geometry" />
        </mxCell>
        <mxCell id="3-DGFyrarjnQaaBnUxov-7" value="" style="pointerEvents=1;shadow=0;dashed=0;html=1;strokeColor=none;fillColor=#005F4B;labelPosition=center;verticalLabelPosition=bottom;verticalAlign=top;align=center;outlineConnect=0;shape=mxgraph.veeam2.datacenter;" vertex="1" parent="1">
          <mxGeometry x="830" y="2050" width="83" height="53" as="geometry" />
        </mxCell>
        <mxCell id="3-DGFyrarjnQaaBnUxov-8" value="" style="shape=image;verticalLabelPosition=bottom;labelBackgroundColor=#ffffff;verticalAlign=top;aspect=fixed;imageAspect=0;image=data:image/jpeg,/9j/4AAQSkZJRgABAQAASABIAAD/4QBMRXhpZgAATU0AKgAAAAgAAYdpAAQAAAABAAAAGgAAAAAAA6ABAAMAAAAB//8AAKACAAQAAAABAAAAgqADAAQAAAABAAAAPAAAAAD/7QA4UGhvdG9zaG9wIDMuMAA4QklNBAQAAAAAAAA4QklNBCUAAAAAABDUHYzZjwCyBOmACZjs+EJ+/+IH2ElDQ19QUk9GSUxFAAEBAAAHyGFwcGwCIAAAbW50clJHQiBYWVogB9kAAgAZAAsAGgALYWNzcEFQUEwAAAAAYXBwbAAAAAAAAAAAAAAAAAAAAAAAAPbWAAEAAAAA0y1hcHBsAAAAAAAAAAAAAAAAAAAAAAAAAAAAAAAAAAAAAAAAAAAAAAAAAAAAAAAAAAAAAAALZGVzYwAAAQgAAABvZHNjbQAAAXgAAAWKY3BydAAABwQAAAA4d3RwdAAABzwAAAAUclhZWgAAB1AAAAAUZ1hZWgAAB2QAAAAUYlhZWgAAB3gAAAAUclRSQwAAB4wAAAAOY2hhZAAAB5wAAAAsYlRSQwAAB4wAAAAOZ1RSQwAAB4wAAAAOZGVzYwAAAAAAAAAUR2VuZXJpYyBSR0IgUHJvZmlsZQAAAAAAAAAAAAAAFEdlbmVyaWMgUkdCIFByb2ZpbGUAAAAAAAAAAAAAAAAAAAAAAAAAAAAAAAAAAAAAAAAAAAAAAAAAAAAAAAAAAAAAAAAAAG1sdWMAAAAAAAAAHwAAAAxza1NLAAAAKAAAAYRkYURLAAAAJAAAAaxjYUVTAAAAJAAAAdB2aVZOAAAAJAAAAfRwdEJSAAAAJgAAAhh1a1VBAAAAKgAAAj5mckZVAAAAKAAAAmhodUhVAAAAKAAAApB6aFRXAAAAEgAAArhrb0tSAAAAFgAAAspuYk5PAAAAJgAAAuBjc0NaAAAAIgAAAwZoZUlMAAAAHgAAAyhyb1JPAAAAJAAAA0ZkZURFAAAALAAAA2ppdElUAAAAKAAAA5ZzdlNFAAAAJgAAAuB6aENOAAAAEgAAA75qYUpQAAAAGgAAA9BlbEdSAAAAIgAAA+pwdFBPAAAAJgAABAxubE5MAAAAKAAABDJlc0VTAAAAJgAABAx0aFRIAAAAJAAABFp0clRSAAAAIgAABH5maUZJAAAAKAAABKBockhSAAAAKAAABMhwbFBMAAAALAAABPBydVJVAAAAIgAABRxlblVTAAAAJgAABT5hckVHAAAAJgAABWQAVgFhAGUAbwBiAGUAYwBuAP0AIABSAEcAQgAgAHAAcgBvAGYAaQBsAEcAZQBuAGUAcgBlAGwAIABSAEcAQgAtAHAAcgBvAGYAaQBsAFAAZQByAGYAaQBsACAAUgBHAEIAIABnAGUAbgDoAHIAaQBjAEMepQB1ACAAaADsAG4AaAAgAFIARwBCACAAQwBoAHUAbgBnAFAAZQByAGYAaQBsACAAUgBHAEIAIABHAGUAbgDpAHIAaQBjAG8EFwQwBDMEMAQ7BEwEPQQ4BDkAIAQ/BEAEPgREBDAEOQQ7ACAAUgBHAEIAUAByAG8AZgBpAGwAIABnAOkAbgDpAHIAaQBxAHUAZQAgAFIAVgBCAMEAbAB0AGEAbADhAG4AbwBzACAAUgBHAEIAIABwAHIAbwBmAGkAbJAadSgAUgBHAEKCcl9pY8+P8Md8vBgAIABSAEcAQgAg1QS4XNMMx3wARwBlAG4AZQByAGkAcwBrACAAUgBHAEIALQBwAHIAbwBmAGkAbABPAGIAZQBjAG4A/QAgAFIARwBCACAAcAByAG8AZgBpAGwF5AXoBdUF5AXZBdwAIABSAEcAQgAgBdsF3AXcBdkAUAByAG8AZgBpAGwAIABSAEcAQgAgAGcAZQBuAGUAcgBpAGMAQQBsAGwAZwBlAG0AZQBpAG4AZQBzACAAUgBHAEIALQBQAHIAbwBmAGkAbABQAHIAbwBmAGkAbABvACAAUgBHAEIAIABnAGUAbgBlAHIAaQBjAG9mbpAaAFIARwBCY8+P8GWHTvZOAIIsACAAUgBHAEIAIDDXMO0w1TChMKQw6wOTA7UDvQO5A7oDzAAgA8ADwQO/A8YDrwO7ACAAUgBHAEIAUABlAHIAZgBpAGwAIABSAEcAQgAgAGcAZQBuAOkAcgBpAGMAbwBBAGwAZwBlAG0AZQBlAG4AIABSAEcAQgAtAHAAcgBvAGYAaQBlAGwOQg4bDiMORA4fDiUOTAAgAFIARwBCACAOFw4xDkgOJw5EDhsARwBlAG4AZQBsACAAUgBHAEIAIABQAHIAbwBmAGkAbABpAFkAbABlAGkAbgBlAG4AIABSAEcAQgAtAHAAcgBvAGYAaQBpAGwAaQBHAGUAbgBlAHIAaQENAGsAaQAgAFIARwBCACAAcAByAG8AZgBpAGwAVQBuAGkAdwBlAHIAcwBhAGwAbgB5ACAAcAByAG8AZgBpAGwAIABSAEcAQgQeBDEESQQ4BDkAIAQ/BEAEPgREBDgEOwRMACAAUgBHAEIARwBlAG4AZQByAGkAYwAgAFIARwBCACAAUAByAG8AZgBpAGwAZQZFBkQGQQAgBioGOQYxBkoGQQAgAFIARwBCACAGJwZEBjkGJwZFAAB0ZXh0AAAAAENvcHlyaWdodCAyMDA3IEFwcGxlIEluYy4sIGFsbCByaWdodHMgcmVzZXJ2ZWQuAFhZWiAAAAAAAADzUgABAAAAARbPWFlaIAAAAAAAAHRNAAA97gAAA9BYWVogAAAAAAAAWnUAAKxzAAAXNFhZWiAAAAAAAAAoGgAAFZ8AALg2Y3VydgAAAAAAAAABAc0AAHNmMzIAAAAAAAEMQgAABd7///MmAAAHkgAA/ZH///ui///9owAAA9wAAMBs/8AAEQgAPACCAwEiAAIRAQMRAf/EAB8AAAEFAQEBAQEBAAAAAAAAAAABAgMEBQYHCAkKC//EALUQAAIBAwMCBAMFBQQEAAABfQECAwAEEQUSITFBBhNRYQcicRQygZGhCCNCscEVUtHwJDNicoIJChYXGBkaJSYnKCkqNDU2Nzg5OkNERUZHSElKU1RVVldYWVpjZGVmZ2hpanN0dXZ3eHl6g4SFhoeIiYqSk5SVlpeYmZqio6Slpqeoqaqys7S1tre4ubrCw8TFxsfIycrS09TV1tfY2drh4uPk5ebn6Onq8fLz9PX29/j5+v/EAB8BAAMBAQEBAQEBAQEAAAAAAAABAgMEBQYHCAkKC//EALURAAIBAgQEAwQHBQQEAAECdwABAgMRBAUhMQYSQVEHYXETIjKBCBRCkaGxwQkjM1LwFWJy0QoWJDThJfEXGBkaJicoKSo1Njc4OTpDREVGR0hJSlNUVVZXWFlaY2RlZmdoaWpzdHV2d3h5eoKDhIWGh4iJipKTlJWWl5iZmqKjpKWmp6ipqrKztLW2t7i5usLDxMXGx8jJytLT1NXW19jZ2uLj5OXm5+jp6vLz9PX29/j5+v/bAEMAAQEBAQEBAgEBAgMCAgIDBQMDAwMFBgUFBQUFBgcGBgYGBgYHBwcHBwcHBwgICAgICAoKCgoKCwsLCwsLCwsLC//bAEMBAgICAwMDBQMDBQwIBggMDAwMDAwMDAwMDAwMDAwMDAwMDAwMDAwMDAwMDAwMDAwMDAwMDAwMDAwMDAwMDAwMDP/dAAQACf/aAAwDAQACEQMRAD8A/v4ooooAKKKKACivH/jL8b/hJ+zx4Cufih8bfEFn4a0G0YI93evtXc33UUDJd252ogJPYV/MB+13/wAHLtnZ3Vz4T/Yu8KrdomUXX/EIKoSRwYrNCGwD0aVx2ylc9fFU6Xxs+74Q8Os84lqcuWUG11k9Ir5/oj+t+vk/4k/tx/sa/B6aa0+JnxR8MaPdW5KyWs+oW5nBHUeQHMv5JX+dB8ff2/v2yP2nr64uPjL8QtX1O1uGLf2dFMbazAPYW0GyEADj7hOOpNeNfCj4A/G/466odI+CvhHWfFdyjbXTSbSW48vjOXMakIMdywFeXLObu0IH9H5Z9FmnQo+3zvHqPflWi/7ef+R/oC6z/wAFz/8Aglvol49hP8UUnlT732fTdTlX8HS1KH/gJNczH/wXz/4Jded5TeP7oL/fbS9Rx/6TZ/Sv5Sfht/wQe/4KZfEO3ivrnwND4dtpvuvq97bQkD1MSPJMv0aLPtX1ppn/AAbJ/tuTosmreMfBVsWx8sdxeyFc9v8AjxAyPrj3NOOMxj2pmOK8L/C3BvkrZq7+U0/yTP6O/Cv/AAW3/wCCX/i++Gn6Z8VbW2kOMfbrLULVOf8AppPbJH/49X3h8K/2h/gH8c4HuPgv420PxWqLvcaTewXRQH+8InYp+OK/jY1X/g2Q/bZto2k0fxn4KuSudoee/jJ/8kn5Pufxr5M8cf8ABEn/AIKj/A2/XxT4d8HSam1idyXvhy+hlmU9jHGJEuM4zyI/rjNXHG4lfFTPIreE/h/mHuZXnfLP+84/8A/0RqxINV0261CbSrW5ikubbBmiDAvGG5XeoOV3Dlciv4Sf2af+Cz//AAUB/YO8YRfCf9qrTdU8V6VaMFuNL8UrLBqkEeQCYriVfOOAp2iZXQ9sda/qj/YM8a/s0/tJah4h/bE/Zx8SXep2/ihvs+o6bdqsc1lcZSR4p4+Sjr/BsOwhiwMmQ9duGxsaui3PyPjzwozfhhKvXSnh3tOOsfn2P0uooorrPy4KKKKAP//Q/v4ooooAK+Sf20P2vPht+xD8AdW+PvxPEk1tZkW9lZQcS3V3IreTbxnBCl9pLOeEUFucYP1tX8Uf/Bzj8afEuq/tEeBf2fo53XQ9G0Ea40AGAbu7nmh3k/xbI4FC9hvfHJNc2Nr+ypOSP0jwq4Np8S8Q0curP93vL0X+ex+J/wC2X+3P+0H+3T8SZPiD8bdXaa3iZl03SLclbKyiJJCQRZxnDYaR8yPgbyQAB4j8Evgn8Tv2ivihpPwb+DukS6z4h1ucQW9vFgD1LyOSAiIAWdy2AASSAK8pr+2H/g2p/Z08BeHv2c/EP7TnkLceJ/EOqy6R5zYJgtbQIfLj/umSR8v0yAnYCvmcNReIqpNn+hPHnE2F4G4beJwdFWjaMIra72+XV9zd/Yd/4N2fgN8KtLsPHH7Xcw8deKSglfSo2dNMt5OfkO3ZJdEcZZyiHGNhHNeu/Eb/AILSfsafs7eLrj9mz9kDwFq3xKv9E3JPZeBbKMWEDxttkQPGPnKgZZ4YXj6DfnOPrb/gsd8WvHHwQ/4Jq/Fbx98PJXttV/s+HTo7iI4aKPULuCylkUjBDpHO5Rhyr4PbNfIX/BNPxr+yd/wT3/4I8eGv2mNcuEh0q+shqviDULKEzXF1fzSmIW5CZy8bkWyAsqAjLFMs1fVUaFOkrRVj/NzinjfN+IK7rZnXcvL7K9Fsj1f9mz/gt5+y9+0j8NfHPiHR9J1vSvGHw/0q61a+8J3kSm9uEtR84syjFJjvKxlTsdHPzIF+avli8/4OTfgdp/iK38I6h8HfiDb6tdR+bBZPbW4mkXnlY2mDsPlPIUjg+lfMv7Mni/wD+2Z/wcMv+01+ytM134M0TwyL/WtQiiMUc7zaZ9jCPkAiTzZ41KvyTA5G4DI9c8Bq37Qf/BzP4l8QRN9osfhH4WKQOp4B+xw20inPdZ9RmXA7gnsa6ND5E+15v+C4P7OHhr9mlf2jfil4Z8SeFJL/AFmbRdG8NX1un9qajNbxQySSQRCQIIF89EaV3UBgRjJQHz74Kf8ABef4YePfjnoHwD+LPwm8cfD7VvFlzHaaQ9/aGXzZJW2jfEqpOEJK/PHFIozltqgmk/4K7f8ABPL4wftj/FrwH8Zf2SfHGm6N8UvhdEt9FpV7MsbeUbjzba5jISRo3WeF1XzE8uTBG9NjB/mn9kH/AIKIf8FAfA37fXgz9g//AIKZeC9Ivdf1qJ7nSNat4rcXcJe3nCXCNbO9u8UohlifykjdMvuJClCugH79ftG/srfAL9rDwTP8P/j34bs9fspUKRSSqBPASPv284xJE465Rh75HFfzHfBj4G/Eb/gi9/wVe8FfDDw7q1xq/wAKvjbMNItjKBvkJYRxJMANvn2lxNEd6KMxyHpvIH9gVfjL+01pej/tY/8ABSb4PfBrwhIJT8EpZfG/ia5UBltjKESwtM54mmdN5APCDfg8VwYuirqcNz9e8NuJsVSp4nKsQ+bBSpz54vZWTs12d7Jep+zVFFFdp+QhRRRQB//R/v4qjNLDaQvPcuI44wWZmPAA5yc14l+0P+0X8IP2VvhXqHxo+OWsR6NoOnYDO2Wklkb7kMUYy8kj44RR6k4AJH8Xn/BVT/gt9d/tqeBR8Cf2fdN1bwn4SN08mpXU86xzalCAyJDLFFkJCd28oZXDnGRwK5sVjKdFau7P03w+8Ls24qrxWEp2o3tKfRf5vyR/Xhrn/BQz9hTwz4ifwprnxh8H2l9G2x4n1O2AQ+jv5mxCO+5hjvX4P/8ABd39ljRf20vB+k/tdfsn65pvjrUfBGnNZ6zYaJcQXkh00SPKLiMQFy/kO7715+R8gcHP8btaWk6xq2g6lDrWg3UtjeW7b4p7ZjHJGR3DhgQfda8KtmftY8kkf2Dwr9HyPDmYUszyvHP2kf5opp91o1a5m1+5f/BGz/gq9Y/sCa/qnwr+MFvPefDnxLcC8lktR5k1ld7UjM4TjejogEiD5+ARkgg/iBqWpX2sX02qatM9zdXLmSeeUktIxOS7k/MST8xY5JOSSSa7DwX8MfHXxJvBpfw/099ZvywRLKzIkupCQTiK3H76bGGzsQgevIrz6NSVOSlBn7fxXw/l+dZZPAZqr0pb62t5p+R/p+2mt/s1/twfA/UtI0m/0vx54H8VWjWV2tvKJY3jlHKtsO+KQdRnZIjgEYYDH4bT/wDBuXpOj2erfDn4Z/H/AMb+Hvhtrkwkv/C6nfFOAQcSlJYYJDwNrPbNjAznFfyF+E/HH7Tf7J3i46l4N1LxL8PNaYbXaFrjT5XA7OAULjnkMpHtX6PfC/8A4L5/8FK/hvbw2epeLbLxVbW+Aqa3ZQSEj0MsAgmf6lyff096lnMf+Xisz+NM8+i1mKk6uT4uM6fTmun+F0z+vT/gmF/wTc8Pf8E2vhz4m8A6R4ll8Ty+JNXfUHuJbeKAxxIDHBHlMyORHgvucpvJKIm5i27+yx/wTn8HfsxftS/Fb9rCDxHea/rnxTvJLmWK4jSOOzjluHuDFEUJLgbkQFucIPU1/M1Y/wDBzp+2gibdS8E+Cpjt6xQ38Y/W9evTPDH/AAXa/wCCs/xphFn8E/g3pOqG5GEm0vR9VvCM9CCl0U/NSMVv/alFnxFb6OvFVBc1ZQiu7mrH6/ftff8ABFnw3+0T+0hcftZfCL4seLfhf461BUju77TZnmBWNFjAhPmQzQcIvyJN5fAwgqH9nr/gnh+yx/wTf8dX/wC2V+1J8Vbvxh4+mieAeK/Gd2sflRmPY4t1ld3eZ4/kLGWR9h2IACwf4G8NeCP+Dkn9qmOL/hKPElr8K9FuWGWl+x2UoU9SBawz3oIH8LsmT6da+ufg/wD8EEvhdfeKLX4oftx+PvEHxo8SxFZGTUZ5Y7TOdzIwd5J5Ezt4MqKdvKYO0bLFVZ/w4/eeBieA8lyt3zjNIN/y0rzl6X0S+bPQNT/4KT/GH9tbxHd/B7/glr4fe8it5RFqXxG1+BotIsU3EMbeGQB7qYgZRCB6lCmSP0f/AGUf2XvB/wCyp8Nv+EK8P3E2s6zqU7ahr+vXvN3qd9L/AK25uH5OWPCJuIRMKCcEn3vwj4N8I/D3w3aeD/Ael2ujaTYIIreysokhhiUdkjQBQPoK6ytadFp81R6nyOd8QUatJ4LLKPssP63lLzk+vkkkkFFFFbHyIUUUUAf/0v6nv+Cwf7Dvjz9vT9kf/hV/wvvbe28RaFrEPiCwt7r5YrqSCGeA25k/5Zl0nco5G3eoDFUJdPJv+CZ3/BLf9kH4LfAbwz4r8TeB7fWviFPZRSa7ceIrdZrm0vZI0ae2WCYFIBCTtTYuXTD73Dhj+2dZwhhW9e4VR5joFZ8ckBjgE+gycfU1jPCw9p7R9j7jCcfZrSyVZFQquNJy5tNN907bo4PxH8IvhR4xso9M8XeGNK1a2iQRpDeWkUyKo4CgOhAAHbFfnj8cv+CLH/BOL45xzy3/AMPrbwzfzMSLzw4x09lJ6kRR/wCjn/gUJr9W6KudGFRe8jxsp4lzXLZKtgMRKD8m0fxc/tKf8Gy/xg8M+drX7LHjOz8UWyrldN1ofY7nqflSVN8DnGOXWMf1/n9+PX7KP7Sf7LWujRfj54M1Twtcbv3Ut1EfJcgkZiuI90MnQ8o5r/VIrm/Enhfwz4y0ibwz4v0611XTrkbZrW8iSaJx6OkgZW/EV5dbKac9aeh++8JfSbz7BWhmcFXp/dL79vwP86f9mf8A4LKft0fs2WNv4Zj8SL408NQsFbSPFCm9j8sH7iSuROgwWCgS7BxwQK/Yz4Y/8F5f+Cf3xAe2i/ab+AVrpt4yjzbuws7DUot46tiZIJApP8I3ke/Wv14+Nn/BDj/gm78bLuTU5PA//CK305YtP4cmezUZ9Lf57UfhCK/lq/bp/wCCaXwJ/Zh+Ies+E/AWra9eW+nuVjfUJreRyPcx20Y/75Arz5zrYfTmuftWV4bg/jVfWY4GdGq93FqP/pLs/mj+mf4V/wDBUH/gjNq0NvceD/Efhnw9cHB8q60uSxeM+hZ7ZEz9HI96+9tB/bn/AGLfE1iNQ8PfFzwbdxdymr2eQfQgy5U+xxX+Zh4P8FaV4hvZ7a7eWNY5Ci+WQDj8Qa/Zj/gn5/wS4+AH7VvjFPD3xC1jxBYws4Utp01sjY4/562sq/pWtHNaj05UeBxF9G/JqcXVji6mnez/AMj+yfxh+39+xB4C0ltY8U/Fvwlbw87QmpW0rtjrsjjd3f8A4Cpr4t1H/gsR8Lvivrs/w3/YM8J658Z/FTERI9lbyWelW7NwJLu8uVTy4gxGWCEEdG7034R/8EI/+CbHwlEF7deDJ/Ft2hXbPr93LOOo6wxmKBv+BRH+dfrL4Q8CeCfh7oUPhXwBpFloWmQj93aafDHBCnT7scaqg/KvUoVKta3vWTP5yznAcNZNUlClQqVpr+dqMfujdv70eefAKw+Otn8MrGb9pC90u78X3LSXF4ujRNFaW4kbKW8Rkd3kWEYTzX5fGSBXuVFFdsdLH5diq8qtWdVxSv0Wi+QUUUUzmCiiigD/2Q==;" vertex="1" parent="1">
          <mxGeometry x="630" y="1970" width="130" height="60" as="geometry" />
        </mxCell>
        <mxCell id="3-DGFyrarjnQaaBnUxov-12" value="" style="endArrow=classic;startArrow=classic;html=1;fillColor=#299BFF;strokeWidth=3;strokeColor=#FF9933;" edge="1" parent="1" source="3-DGFyrarjnQaaBnUxov-2" target="3-DGFyrarjnQaaBnUxov-3">
          <mxGeometry width="50" height="50" relative="1" as="geometry">
            <mxPoint x="560" y="1430" as="sourcePoint" />
            <mxPoint x="610" y="1380" as="targetPoint" />
          </mxGeometry>
        </mxCell>
        <mxCell id="3-DGFyrarjnQaaBnUxov-15" value="Gateway&lt;br&gt;Asoociation" style="edgeLabel;html=1;align=center;verticalAlign=middle;resizable=0;points=[];" vertex="1" connectable="0" parent="3-DGFyrarjnQaaBnUxov-12">
          <mxGeometry x="0.0404" y="-1" relative="1" as="geometry">
            <mxPoint x="-1" as="offset" />
          </mxGeometry>
        </mxCell>
        <mxCell id="3-DGFyrarjnQaaBnUxov-13" value="" style="endArrow=classic;startArrow=classic;html=1;fillColor=#299BFF;strokeColor=#FF9933;strokeWidth=3;" edge="1" parent="1" target="3-DGFyrarjnQaaBnUxov-2">
          <mxGeometry width="50" height="50" relative="1" as="geometry">
            <mxPoint x="1240" y="1340" as="sourcePoint" />
            <mxPoint x="970" y="1400.0010854503464" as="targetPoint" />
          </mxGeometry>
        </mxCell>
        <mxCell id="3-DGFyrarjnQaaBnUxov-14" value="Gateway&lt;br&gt;Association" style="edgeLabel;html=1;align=center;verticalAlign=middle;resizable=0;points=[];" vertex="1" connectable="0" parent="3-DGFyrarjnQaaBnUxov-13">
          <mxGeometry x="0.0516" relative="1" as="geometry">
            <mxPoint as="offset" />
          </mxGeometry>
        </mxCell>
        <mxCell id="3-DGFyrarjnQaaBnUxov-16" value="Transit&lt;br&gt;Virtual Interface (VIF)" style="endArrow=classic;startArrow=classic;html=1;fillColor=#299BFF;strokeColor=#299BFF;strokeWidth=2;" edge="1" parent="1" source="3-DGFyrarjnQaaBnUxov-2" target="3-DGFyrarjnQaaBnUxov-5">
          <mxGeometry width="50" height="50" relative="1" as="geometry">
            <mxPoint x="840" y="1640" as="sourcePoint" />
            <mxPoint x="890" y="1590" as="targetPoint" />
          </mxGeometry>
        </mxCell>
        <mxCell id="3-DGFyrarjnQaaBnUxov-17" value="" style="outlineConnect=0;fontColor=#232F3E;gradientColor=none;fillColor=#5A30B5;strokeColor=none;dashed=0;verticalLabelPosition=bottom;verticalAlign=top;align=center;html=1;fontSize=12;fontStyle=0;aspect=fixed;pointerEvents=1;shape=mxgraph.aws4.route_table;" vertex="1" parent="1">
          <mxGeometry x="290" y="1410" width="78" height="76" as="geometry" />
        </mxCell>
        <mxCell id="3-DGFyrarjnQaaBnUxov-18" value="" style="outlineConnect=0;fontColor=#232F3E;gradientColor=none;fillColor=#5A30B5;strokeColor=none;dashed=0;verticalLabelPosition=bottom;verticalAlign=top;align=center;html=1;fontSize=12;fontStyle=0;aspect=fixed;pointerEvents=1;shape=mxgraph.aws4.route_table;" vertex="1" parent="1">
          <mxGeometry x="381" y="1180" width="78" height="76" as="geometry" />
        </mxCell>
        <mxCell id="3-DGFyrarjnQaaBnUxov-19" value="" style="outlineConnect=0;fontColor=#232F3E;gradientColor=none;fillColor=#5A30B5;strokeColor=none;dashed=0;verticalLabelPosition=bottom;verticalAlign=top;align=center;html=1;fontSize=12;fontStyle=0;aspect=fixed;pointerEvents=1;shape=mxgraph.aws4.route_table;" vertex="1" parent="1">
          <mxGeometry x="470" y="1410" width="78" height="76" as="geometry" />
        </mxCell>
        <mxCell id="3-DGFyrarjnQaaBnUxov-20" value="" style="outlineConnect=0;fontColor=#232F3E;gradientColor=none;fillColor=#5A30B5;strokeColor=none;dashed=0;verticalLabelPosition=bottom;verticalAlign=top;align=center;html=1;fontSize=12;fontStyle=0;aspect=fixed;pointerEvents=1;shape=mxgraph.aws4.route_table;" vertex="1" parent="1">
          <mxGeometry x="1150" y="1400" width="78" height="76" as="geometry" />
        </mxCell>
        <mxCell id="3-DGFyrarjnQaaBnUxov-21" value="" style="outlineConnect=0;fontColor=#232F3E;gradientColor=none;fillColor=#5A30B5;strokeColor=none;dashed=0;verticalLabelPosition=bottom;verticalAlign=top;align=center;html=1;fontSize=12;fontStyle=0;aspect=fixed;pointerEvents=1;shape=mxgraph.aws4.route_table;" vertex="1" parent="1">
          <mxGeometry x="1236" y="1180" width="78" height="76" as="geometry" />
        </mxCell>
        <mxCell id="3-DGFyrarjnQaaBnUxov-22" value="" style="outlineConnect=0;fontColor=#232F3E;gradientColor=none;fillColor=#5A30B5;strokeColor=none;dashed=0;verticalLabelPosition=bottom;verticalAlign=top;align=center;html=1;fontSize=12;fontStyle=0;aspect=fixed;pointerEvents=1;shape=mxgraph.aws4.route_table;" vertex="1" parent="1">
          <mxGeometry x="1320" y="1400" width="78" height="76" as="geometry" />
        </mxCell>
        <mxCell id="3-DGFyrarjnQaaBnUxov-24" value="Securtity&lt;br&gt;RTB" style="text;html=1;strokeColor=none;fillColor=none;align=center;verticalAlign=middle;whiteSpace=wrap;rounded=0;" vertex="1" parent="1">
          <mxGeometry x="308" y="1489" width="40" height="20" as="geometry" />
        </mxCell>
        <mxCell id="3-DGFyrarjnQaaBnUxov-25" value="Development&lt;br&gt;RTB&lt;br&gt;" style="text;html=1;strokeColor=none;fillColor=none;align=center;verticalAlign=middle;whiteSpace=wrap;rounded=0;" vertex="1" parent="1">
          <mxGeometry x="489" y="1489" width="40" height="20" as="geometry" />
        </mxCell>
        <mxCell id="3-DGFyrarjnQaaBnUxov-27" value="Production&lt;br&gt;RTB&lt;br&gt;" style="text;html=1;strokeColor=none;fillColor=none;align=center;verticalAlign=middle;whiteSpace=wrap;rounded=0;" vertex="1" parent="1">
          <mxGeometry x="400" y="1266" width="40" height="20" as="geometry" />
        </mxCell>
        <mxCell id="3-DGFyrarjnQaaBnUxov-28" value="Securtity&lt;br&gt;RTB" style="text;html=1;strokeColor=none;fillColor=none;align=center;verticalAlign=middle;whiteSpace=wrap;rounded=0;" vertex="1" parent="1">
          <mxGeometry x="1169" y="1486" width="40" height="20" as="geometry" />
        </mxCell>
        <mxCell id="3-DGFyrarjnQaaBnUxov-29" value="Development&lt;br&gt;RTB&lt;br&gt;" style="text;html=1;strokeColor=none;fillColor=none;align=center;verticalAlign=middle;whiteSpace=wrap;rounded=0;" vertex="1" parent="1">
          <mxGeometry x="1339" y="1486" width="40" height="20" as="geometry" />
        </mxCell>
        <mxCell id="3-DGFyrarjnQaaBnUxov-30" value="Production&lt;br&gt;RTB&lt;br&gt;" style="text;html=1;strokeColor=none;fillColor=none;align=center;verticalAlign=middle;whiteSpace=wrap;rounded=0;" vertex="1" parent="1">
          <mxGeometry x="1260" y="1266" width="40" height="20" as="geometry" />
        </mxCell>
        <mxCell id="3-DGFyrarjnQaaBnUxov-31" value="TGW-us-east-1" style="fillColor=none;strokeColor=#5A6C86;dashed=1;verticalAlign=top;fontStyle=0;fontColor=#5A6C86;" vertex="1" parent="1">
          <mxGeometry x="1120" y="1120" width="310" height="418" as="geometry" />
        </mxCell>
        <mxCell id="3-DGFyrarjnQaaBnUxov-36" value="untrust subnet a" style="points=[[0,0],[0.25,0],[0.5,0],[0.75,0],[1,0],[1,0.25],[1,0.5],[1,0.75],[1,1],[0.75,1],[0.5,1],[0.25,1],[0,1],[0,0.75],[0,0.5],[0,0.25]];outlineConnect=0;gradientColor=none;html=1;whiteSpace=wrap;fontSize=12;fontStyle=0;shape=mxgraph.aws4.group;grIcon=mxgraph.aws4.group_security_group;grStroke=0;strokeColor=#248814;fillColor=#E9F3E6;verticalAlign=top;align=left;spacingLeft=30;fontColor=#248814;dashed=0;" vertex="1" parent="1">
          <mxGeometry x="1545" y="1220" width="130" height="60" as="geometry" />
        </mxCell>
        <mxCell id="3-DGFyrarjnQaaBnUxov-38" value="" style="outlineConnect=0;fontColor=#232F3E;gradientColor=none;fillColor=#5A30B5;strokeColor=none;dashed=0;verticalLabelPosition=bottom;verticalAlign=top;align=center;html=1;fontSize=12;fontStyle=0;aspect=fixed;pointerEvents=1;shape=mxgraph.aws4.internet_gateway;" vertex="1" parent="1">
          <mxGeometry x="1690" y="1322" width="78" height="78" as="geometry" />
        </mxCell>
        <mxCell id="3-DGFyrarjnQaaBnUxov-39" value="Az-b" style="fillColor=none;strokeColor=#147EBA;dashed=1;verticalAlign=top;fontStyle=0;fontColor=#147EBA;" vertex="1" parent="1">
          <mxGeometry x="1720" y="1080" width="160" height="220" as="geometry" />
        </mxCell>
        <mxCell id="3-DGFyrarjnQaaBnUxov-41" value="untrust subnet b" style="points=[[0,0],[0.25,0],[0.5,0],[0.75,0],[1,0],[1,0.25],[1,0.5],[1,0.75],[1,1],[0.75,1],[0.5,1],[0.25,1],[0,1],[0,0.75],[0,0.5],[0,0.25]];outlineConnect=0;gradientColor=none;html=1;whiteSpace=wrap;fontSize=12;fontStyle=0;shape=mxgraph.aws4.group;grIcon=mxgraph.aws4.group_security_group;grStroke=0;strokeColor=#248814;fillColor=#E9F3E6;verticalAlign=top;align=left;spacingLeft=30;fontColor=#248814;dashed=0;" vertex="1" parent="1">
          <mxGeometry x="1735" y="1225" width="130" height="60" as="geometry" />
        </mxCell>
        <mxCell id="3-DGFyrarjnQaaBnUxov-42" value="Mgmt a" style="points=[[0,0],[0.25,0],[0.5,0],[0.75,0],[1,0],[1,0.25],[1,0.5],[1,0.75],[1,1],[0.75,1],[0.5,1],[0.25,1],[0,1],[0,0.75],[0,0.5],[0,0.25]];outlineConnect=0;gradientColor=none;html=1;whiteSpace=wrap;fontSize=12;fontStyle=0;shape=mxgraph.aws4.group;grIcon=mxgraph.aws4.group_security_group;grStroke=0;strokeColor=#147EBA;fillColor=#E6F2F8;verticalAlign=top;align=left;spacingLeft=30;fontColor=#147EBA;dashed=0;" vertex="1" parent="1">
          <mxGeometry x="1540" y="1160" width="140" height="50" as="geometry" />
        </mxCell>
        <mxCell id="3-DGFyrarjnQaaBnUxov-44" value="trust a" style="points=[[0,0],[0.25,0],[0.5,0],[0.75,0],[1,0],[1,0.25],[1,0.5],[1,0.75],[1,1],[0.75,1],[0.5,1],[0.25,1],[0,1],[0,0.75],[0,0.5],[0,0.25]];outlineConnect=0;gradientColor=none;html=1;whiteSpace=wrap;fontSize=12;fontStyle=0;shape=mxgraph.aws4.group;grIcon=mxgraph.aws4.group_security_group;grStroke=0;strokeColor=#147EBA;fillColor=#E6F2F8;verticalAlign=top;align=left;spacingLeft=30;fontColor=#147EBA;dashed=0;" vertex="1" parent="1">
          <mxGeometry x="1540" y="1110" width="140" height="40" as="geometry" />
        </mxCell>
        <mxCell id="3-DGFyrarjnQaaBnUxov-47" value="" style="outlineConnect=0;fontColor=#232F3E;gradientColor=none;fillColor=#D86613;strokeColor=none;dashed=0;verticalLabelPosition=bottom;verticalAlign=top;align=center;html=1;fontSize=12;fontStyle=0;aspect=fixed;pointerEvents=1;shape=mxgraph.aws4.instance2;" vertex="1" parent="1">
          <mxGeometry x="1600" y="1180" width="20" height="20" as="geometry" />
        </mxCell>
        <mxCell id="3-DGFyrarjnQaaBnUxov-48" value="Mgmt b" style="points=[[0,0],[0.25,0],[0.5,0],[0.75,0],[1,0],[1,0.25],[1,0.5],[1,0.75],[1,1],[0.75,1],[0.5,1],[0.25,1],[0,1],[0,0.75],[0,0.5],[0,0.25]];outlineConnect=0;gradientColor=none;html=1;whiteSpace=wrap;fontSize=12;fontStyle=0;shape=mxgraph.aws4.group;grIcon=mxgraph.aws4.group_security_group;grStroke=0;strokeColor=#147EBA;fillColor=#E6F2F8;verticalAlign=top;align=left;spacingLeft=30;fontColor=#147EBA;dashed=0;" vertex="1" parent="1">
          <mxGeometry x="1730" y="1160" width="140" height="50" as="geometry" />
        </mxCell>
        <mxCell id="3-DGFyrarjnQaaBnUxov-49" value="" style="outlineConnect=0;fontColor=#232F3E;gradientColor=none;fillColor=#D86613;strokeColor=none;dashed=0;verticalLabelPosition=bottom;verticalAlign=top;align=center;html=1;fontSize=12;fontStyle=0;aspect=fixed;pointerEvents=1;shape=mxgraph.aws4.instance2;" vertex="1" parent="1">
          <mxGeometry x="1790" y="1180" width="20" height="20" as="geometry" />
        </mxCell>
        <mxCell id="3-DGFyrarjnQaaBnUxov-50" value="trust b" style="points=[[0,0],[0.25,0],[0.5,0],[0.75,0],[1,0],[1,0.25],[1,0.5],[1,0.75],[1,1],[0.75,1],[0.5,1],[0.25,1],[0,1],[0,0.75],[0,0.5],[0,0.25]];outlineConnect=0;gradientColor=none;html=1;whiteSpace=wrap;fontSize=12;fontStyle=0;shape=mxgraph.aws4.group;grIcon=mxgraph.aws4.group_security_group;grStroke=0;strokeColor=#147EBA;fillColor=#E6F2F8;verticalAlign=top;align=left;spacingLeft=30;fontColor=#147EBA;dashed=0;" vertex="1" parent="1">
          <mxGeometry x="1730" y="1110" width="140" height="40" as="geometry" />
        </mxCell>
        <mxCell id="3-DGFyrarjnQaaBnUxov-51" value="lc-security VPC" style="points=[[0,0],[0.25,0],[0.5,0],[0.75,0],[1,0],[1,0.25],[1,0.5],[1,0.75],[1,1],[0.75,1],[0.5,1],[0.25,1],[0,1],[0,0.75],[0,0.5],[0,0.25]];outlineConnect=0;gradientColor=none;html=1;whiteSpace=wrap;fontSize=12;fontStyle=0;shape=mxgraph.aws4.group;grIcon=mxgraph.aws4.group_vpc;strokeColor=#248814;fillColor=none;verticalAlign=top;align=left;spacingLeft=30;fontColor=#AAB7B8;dashed=0;" vertex="1" parent="1">
          <mxGeometry x="-190" y="1139" width="410" height="310" as="geometry" />
        </mxCell>
        <mxCell id="3-DGFyrarjnQaaBnUxov-52" value="Az-a" style="fillColor=none;strokeColor=#147EBA;dashed=1;verticalAlign=top;fontStyle=0;fontColor=#147EBA;" vertex="1" parent="1">
          <mxGeometry x="-160" y="1169" width="160" height="220" as="geometry" />
        </mxCell>
        <mxCell id="3-DGFyrarjnQaaBnUxov-53" value="Az-b" style="fillColor=none;strokeColor=#147EBA;dashed=1;verticalAlign=top;fontStyle=0;fontColor=#147EBA;" vertex="1" parent="1">
          <mxGeometry x="30" y="1169" width="160" height="220" as="geometry" />
        </mxCell>
        <mxCell id="3-DGFyrarjnQaaBnUxov-54" value="trust a" style="points=[[0,0],[0.25,0],[0.5,0],[0.75,0],[1,0],[1,0.25],[1,0.5],[1,0.75],[1,1],[0.75,1],[0.5,1],[0.25,1],[0,1],[0,0.75],[0,0.5],[0,0.25]];outlineConnect=0;gradientColor=none;html=1;whiteSpace=wrap;fontSize=12;fontStyle=0;shape=mxgraph.aws4.group;grIcon=mxgraph.aws4.group_security_group;grStroke=0;strokeColor=#147EBA;fillColor=#E6F2F8;verticalAlign=top;align=left;spacingLeft=30;fontColor=#147EBA;dashed=0;" vertex="1" parent="1">
          <mxGeometry x="-150" y="1199" width="140" height="40" as="geometry" />
        </mxCell>
        <mxCell id="3-DGFyrarjnQaaBnUxov-55" value="Mgmt a" style="points=[[0,0],[0.25,0],[0.5,0],[0.75,0],[1,0],[1,0.25],[1,0.5],[1,0.75],[1,1],[0.75,1],[0.5,1],[0.25,1],[0,1],[0,0.75],[0,0.5],[0,0.25]];outlineConnect=0;gradientColor=none;html=1;whiteSpace=wrap;fontSize=12;fontStyle=0;shape=mxgraph.aws4.group;grIcon=mxgraph.aws4.group_security_group;grStroke=0;strokeColor=#147EBA;fillColor=#E6F2F8;verticalAlign=top;align=left;spacingLeft=30;fontColor=#147EBA;dashed=0;" vertex="1" parent="1">
          <mxGeometry x="-150" y="1249" width="140" height="50" as="geometry" />
        </mxCell>
        <mxCell id="3-DGFyrarjnQaaBnUxov-56" value="" style="outlineConnect=0;fontColor=#232F3E;gradientColor=none;fillColor=#D86613;strokeColor=none;dashed=0;verticalLabelPosition=bottom;verticalAlign=top;align=center;html=1;fontSize=12;fontStyle=0;aspect=fixed;pointerEvents=1;shape=mxgraph.aws4.instance2;" vertex="1" parent="1">
          <mxGeometry x="-90" y="1269" width="20" height="20" as="geometry" />
        </mxCell>
        <mxCell id="3-DGFyrarjnQaaBnUxov-57" value="trust b" style="points=[[0,0],[0.25,0],[0.5,0],[0.75,0],[1,0],[1,0.25],[1,0.5],[1,0.75],[1,1],[0.75,1],[0.5,1],[0.25,1],[0,1],[0,0.75],[0,0.5],[0,0.25]];outlineConnect=0;gradientColor=none;html=1;whiteSpace=wrap;fontSize=12;fontStyle=0;shape=mxgraph.aws4.group;grIcon=mxgraph.aws4.group_security_group;grStroke=0;strokeColor=#147EBA;fillColor=#E6F2F8;verticalAlign=top;align=left;spacingLeft=30;fontColor=#147EBA;dashed=0;" vertex="1" parent="1">
          <mxGeometry x="40" y="1199" width="140" height="40" as="geometry" />
        </mxCell>
        <mxCell id="3-DGFyrarjnQaaBnUxov-58" value="Mgmt b" style="points=[[0,0],[0.25,0],[0.5,0],[0.75,0],[1,0],[1,0.25],[1,0.5],[1,0.75],[1,1],[0.75,1],[0.5,1],[0.25,1],[0,1],[0,0.75],[0,0.5],[0,0.25]];outlineConnect=0;gradientColor=none;html=1;whiteSpace=wrap;fontSize=12;fontStyle=0;shape=mxgraph.aws4.group;grIcon=mxgraph.aws4.group_security_group;grStroke=0;strokeColor=#147EBA;fillColor=#E6F2F8;verticalAlign=top;align=left;spacingLeft=30;fontColor=#147EBA;dashed=0;" vertex="1" parent="1">
          <mxGeometry x="40" y="1249" width="140" height="50" as="geometry" />
        </mxCell>
        <mxCell id="3-DGFyrarjnQaaBnUxov-59" value="" style="outlineConnect=0;fontColor=#232F3E;gradientColor=none;fillColor=#D86613;strokeColor=none;dashed=0;verticalLabelPosition=bottom;verticalAlign=top;align=center;html=1;fontSize=12;fontStyle=0;aspect=fixed;pointerEvents=1;shape=mxgraph.aws4.instance2;" vertex="1" parent="1">
          <mxGeometry x="100" y="1269" width="20" height="20" as="geometry" />
        </mxCell>
        <mxCell id="3-DGFyrarjnQaaBnUxov-60" value="untrust subnet b" style="points=[[0,0],[0.25,0],[0.5,0],[0.75,0],[1,0],[1,0.25],[1,0.5],[1,0.75],[1,1],[0.75,1],[0.5,1],[0.25,1],[0,1],[0,0.75],[0,0.5],[0,0.25]];outlineConnect=0;gradientColor=none;html=1;whiteSpace=wrap;fontSize=12;fontStyle=0;shape=mxgraph.aws4.group;grIcon=mxgraph.aws4.group_security_group;grStroke=0;strokeColor=#248814;fillColor=#E9F3E6;verticalAlign=top;align=left;spacingLeft=30;fontColor=#248814;dashed=0;" vertex="1" parent="1">
          <mxGeometry x="45" y="1314" width="130" height="60" as="geometry" />
        </mxCell>
        <mxCell id="3-DGFyrarjnQaaBnUxov-61" value="untrust subnet a" style="points=[[0,0],[0.25,0],[0.5,0],[0.75,0],[1,0],[1,0.25],[1,0.5],[1,0.75],[1,1],[0.75,1],[0.5,1],[0.25,1],[0,1],[0,0.75],[0,0.5],[0,0.25]];outlineConnect=0;gradientColor=none;html=1;whiteSpace=wrap;fontSize=12;fontStyle=0;shape=mxgraph.aws4.group;grIcon=mxgraph.aws4.group_security_group;grStroke=0;strokeColor=#248814;fillColor=#E9F3E6;verticalAlign=top;align=left;spacingLeft=30;fontColor=#248814;dashed=0;" vertex="1" parent="1">
          <mxGeometry x="-145" y="1309" width="130" height="60" as="geometry" />
        </mxCell>
        <mxCell id="3-DGFyrarjnQaaBnUxov-62" value="" style="outlineConnect=0;fontColor=#232F3E;gradientColor=none;fillColor=#5A30B5;strokeColor=none;dashed=0;verticalLabelPosition=bottom;verticalAlign=top;align=center;html=1;fontSize=12;fontStyle=0;aspect=fixed;pointerEvents=1;shape=mxgraph.aws4.internet_gateway;" vertex="1" parent="1">
          <mxGeometry y="1411" width="78" height="78" as="geometry" />
        </mxCell>
        <mxCell id="3-DGFyrarjnQaaBnUxov-63" value="" style="outlineConnect=0;dashed=0;verticalLabelPosition=bottom;verticalAlign=top;align=center;html=1;shape=mxgraph.aws3.internet_2;fillColor=#D2D3D3;gradientColor=none;fontSize=7;" vertex="1" parent="1">
          <mxGeometry x="-140" y="1820" width="79.5" height="54" as="geometry" />
        </mxCell>
        <mxCell id="3-DGFyrarjnQaaBnUxov-64" value="&lt;span style=&quot;font-size: 12px&quot;&gt;Internet&lt;/span&gt;" style="text;html=1;strokeColor=none;fillColor=none;align=center;verticalAlign=middle;whiteSpace=wrap;rounded=0;fontSize=7;" vertex="1" parent="1">
          <mxGeometry x="-112" y="1877" width="40" height="20" as="geometry" />
        </mxCell>
        <mxCell id="3-DGFyrarjnQaaBnUxov-65" value="" style="outlineConnect=0;dashed=0;verticalLabelPosition=bottom;verticalAlign=top;align=center;html=1;shape=mxgraph.aws3.internet_2;fillColor=#D2D3D3;gradientColor=none;fontSize=7;" vertex="1" parent="1">
          <mxGeometry x="1860" y="1843" width="79.5" height="54" as="geometry" />
        </mxCell>
        <mxCell id="3-DGFyrarjnQaaBnUxov-66" value="&lt;span style=&quot;font-size: 12px&quot;&gt;Internet&lt;/span&gt;" style="text;html=1;strokeColor=none;fillColor=none;align=center;verticalAlign=middle;whiteSpace=wrap;rounded=0;fontSize=7;" vertex="1" parent="1">
          <mxGeometry x="1888" y="1900" width="40" height="20" as="geometry" />
        </mxCell>
        <mxCell id="3-DGFyrarjnQaaBnUxov-67" value="" style="outlineConnect=0;fontColor=#232F3E;gradientColor=none;fillColor=#5A30B5;strokeColor=none;dashed=0;verticalLabelPosition=bottom;verticalAlign=top;align=center;html=1;fontSize=12;fontStyle=0;aspect=fixed;pointerEvents=1;shape=mxgraph.aws4.nat_gateway;" vertex="1" parent="1">
          <mxGeometry x="1591" y="1249" width="29" height="29" as="geometry" />
        </mxCell>
        <mxCell id="3-DGFyrarjnQaaBnUxov-68" value="" style="outlineConnect=0;fontColor=#232F3E;gradientColor=none;fillColor=#5A30B5;strokeColor=none;dashed=0;verticalLabelPosition=bottom;verticalAlign=top;align=center;html=1;fontSize=12;fontStyle=0;aspect=fixed;pointerEvents=1;shape=mxgraph.aws4.nat_gateway;" vertex="1" parent="1">
          <mxGeometry x="1790" y="1251" width="29" height="29" as="geometry" />
        </mxCell>
        <mxCell id="3-DGFyrarjnQaaBnUxov-69" value="" style="endArrow=classic;startArrow=classic;html=1;fillColor=#299BFF;strokeWidth=3;strokeColor=#99FF33;" edge="1" parent="1">
          <mxGeometry width="50" height="50" relative="1" as="geometry">
            <mxPoint x="464" y="1335" as="sourcePoint" />
            <mxPoint x="1240" y="1335" as="targetPoint" />
          </mxGeometry>
        </mxCell>
        <mxCell id="3-DGFyrarjnQaaBnUxov-70" value="Inter&lt;br&gt;Region&lt;br&gt;Peering" style="edgeLabel;html=1;align=center;verticalAlign=middle;resizable=0;points=[];" vertex="1" connectable="0" parent="3-DGFyrarjnQaaBnUxov-69">
          <mxGeometry x="-0.0343" y="2" relative="1" as="geometry">
            <mxPoint x="1" as="offset" />
          </mxGeometry>
        </mxCell>
        <mxCell id="3-DGFyrarjnQaaBnUxov-107" value="&lt;font&gt;&lt;span style=&quot;font-size: 8px&quot;&gt;lc-production&lt;/span&gt;&lt;br&gt;&lt;br style=&quot;color: rgb(0 , 0 , 0)&quot;&gt;&lt;br&gt;&lt;/font&gt;" style="points=[[0,0],[0.25,0],[0.5,0],[0.75,0],[1,0],[1,0.25],[1,0.5],[1,0.75],[1,1],[0.75,1],[0.5,1],[0.25,1],[0,1],[0,0.75],[0,0.5],[0,0.25]];outlineConnect=0;gradientColor=none;html=1;whiteSpace=wrap;fontSize=12;fontStyle=0;shape=mxgraph.aws4.group;grIcon=mxgraph.aws4.group_vpc;strokeColor=#248814;fillColor=none;verticalAlign=top;align=left;spacingLeft=30;fontColor=#AAB7B8;dashed=0;" vertex="1" parent="1">
          <mxGeometry x="-830" y="-60" width="240" height="120" as="geometry" />
        </mxCell>
        <mxCell id="3-DGFyrarjnQaaBnUxov-108" value="&lt;font style=&quot;font-size: 7px&quot;&gt;172.18.32.0/23&lt;/font&gt;" style="text;html=1;strokeColor=none;fillColor=none;align=center;verticalAlign=middle;whiteSpace=wrap;rounded=0;" vertex="1" parent="1">
          <mxGeometry x="-720" y="-60" width="50" height="20" as="geometry" />
        </mxCell>
        <mxCell id="3-DGFyrarjnQaaBnUxov-109" value="&lt;span style=&quot;text-align: left&quot;&gt;&lt;font style=&quot;font-size: 6px&quot;&gt;Range -&amp;nbsp;172.18.32.1 - 172.18.33.254&lt;/font&gt;&lt;/span&gt;" style="text;html=1;strokeColor=none;fillColor=none;align=center;verticalAlign=middle;whiteSpace=wrap;rounded=0;" vertex="1" parent="1">
          <mxGeometry x="-815" y="-40" width="130" height="10" as="geometry" />
        </mxCell>
        <mxCell id="3-DGFyrarjnQaaBnUxov-110" value="us-east-1a" style="fillColor=none;strokeColor=#147EBA;dashed=1;verticalAlign=top;fontStyle=0;fontColor=#147EBA;fontSize=7;" vertex="1" parent="1">
          <mxGeometry x="-815" y="-20" width="60" height="60" as="geometry" />
        </mxCell>
        <mxCell id="3-DGFyrarjnQaaBnUxov-111" value="us-east-1b" style="fillColor=none;strokeColor=#147EBA;dashed=1;verticalAlign=top;fontStyle=0;fontColor=#147EBA;fontSize=7;" vertex="1" parent="1">
          <mxGeometry x="-740" y="-20" width="60" height="60" as="geometry" />
        </mxCell>
        <mxCell id="3-DGFyrarjnQaaBnUxov-112" value="us-east-1c" style="fillColor=none;strokeColor=#147EBA;dashed=1;verticalAlign=top;fontStyle=0;fontColor=#147EBA;fontSize=7;" vertex="1" parent="1">
          <mxGeometry x="-660" y="-20" width="60" height="60" as="geometry" />
        </mxCell>
        <mxCell id="3-DGFyrarjnQaaBnUxov-113" value="" style="group" vertex="1" connectable="0" parent="1">
          <mxGeometry x="-735" y="-10" width="50" height="20" as="geometry" />
        </mxCell>
        <mxCell id="3-DGFyrarjnQaaBnUxov-114" value="" style="rounded=0;whiteSpace=wrap;html=1;fontSize=7;fillColor=#dae8fc;strokeColor=#6c8ebf;" vertex="1" parent="3-DGFyrarjnQaaBnUxov-113">
          <mxGeometry y="5" width="50" height="10" as="geometry" />
        </mxCell>
        <mxCell id="3-DGFyrarjnQaaBnUxov-115" value="Web Tier" style="text;html=1;strokeColor=none;fillColor=none;align=center;verticalAlign=middle;whiteSpace=wrap;rounded=0;fontSize=7;" vertex="1" parent="3-DGFyrarjnQaaBnUxov-113">
          <mxGeometry x="5" width="40" height="20" as="geometry" />
        </mxCell>
        <mxCell id="3-DGFyrarjnQaaBnUxov-116" value="" style="group" vertex="1" connectable="0" parent="1">
          <mxGeometry x="-810" y="-10" width="50" height="35" as="geometry" />
        </mxCell>
        <mxCell id="3-DGFyrarjnQaaBnUxov-117" value="" style="rounded=0;whiteSpace=wrap;html=1;fontSize=7;fillColor=#dae8fc;strokeColor=#6c8ebf;" vertex="1" parent="3-DGFyrarjnQaaBnUxov-116">
          <mxGeometry y="5" width="50" height="10" as="geometry" />
        </mxCell>
        <mxCell id="3-DGFyrarjnQaaBnUxov-118" value="Web Tier" style="text;html=1;strokeColor=none;fillColor=none;align=center;verticalAlign=middle;whiteSpace=wrap;rounded=0;fontSize=7;" vertex="1" parent="3-DGFyrarjnQaaBnUxov-116">
          <mxGeometry x="5" width="40" height="20" as="geometry" />
        </mxCell>
        <mxCell id="3-DGFyrarjnQaaBnUxov-119" value="" style="group" vertex="1" connectable="0" parent="3-DGFyrarjnQaaBnUxov-116">
          <mxGeometry y="15" width="50" height="20" as="geometry" />
        </mxCell>
        <mxCell id="3-DGFyrarjnQaaBnUxov-120" value="" style="rounded=0;whiteSpace=wrap;html=1;fontSize=7;fillColor=#dae8fc;strokeColor=#6c8ebf;" vertex="1" parent="3-DGFyrarjnQaaBnUxov-119">
          <mxGeometry y="5" width="50" height="10" as="geometry" />
        </mxCell>
        <mxCell id="3-DGFyrarjnQaaBnUxov-121" value="App Tier" style="text;html=1;strokeColor=none;fillColor=none;align=center;verticalAlign=middle;whiteSpace=wrap;rounded=0;fontSize=7;" vertex="1" parent="3-DGFyrarjnQaaBnUxov-119">
          <mxGeometry x="5" width="40" height="20" as="geometry" />
        </mxCell>
        <mxCell id="3-DGFyrarjnQaaBnUxov-122" value="" style="group" vertex="1" connectable="0" parent="1">
          <mxGeometry x="-655" y="-10" width="50" height="20" as="geometry" />
        </mxCell>
        <mxCell id="3-DGFyrarjnQaaBnUxov-123" value="" style="rounded=0;whiteSpace=wrap;html=1;fontSize=7;fillColor=#dae8fc;strokeColor=#6c8ebf;" vertex="1" parent="3-DGFyrarjnQaaBnUxov-122">
          <mxGeometry y="5" width="50" height="10" as="geometry" />
        </mxCell>
        <mxCell id="3-DGFyrarjnQaaBnUxov-124" value="Web Tier" style="text;html=1;strokeColor=none;fillColor=none;align=center;verticalAlign=middle;whiteSpace=wrap;rounded=0;fontSize=7;" vertex="1" parent="3-DGFyrarjnQaaBnUxov-122">
          <mxGeometry x="5" width="40" height="20" as="geometry" />
        </mxCell>
        <mxCell id="3-DGFyrarjnQaaBnUxov-125" value="" style="group" vertex="1" connectable="0" parent="1">
          <mxGeometry x="-810" y="20" width="50" height="20" as="geometry" />
        </mxCell>
        <mxCell id="3-DGFyrarjnQaaBnUxov-126" value="" style="rounded=0;whiteSpace=wrap;html=1;fontSize=7;fillColor=#dae8fc;strokeColor=#6c8ebf;" vertex="1" parent="3-DGFyrarjnQaaBnUxov-125">
          <mxGeometry y="5" width="50" height="10" as="geometry" />
        </mxCell>
        <mxCell id="3-DGFyrarjnQaaBnUxov-127" value="DB Tier" style="text;html=1;strokeColor=none;fillColor=none;align=center;verticalAlign=middle;whiteSpace=wrap;rounded=0;fontSize=7;" vertex="1" parent="3-DGFyrarjnQaaBnUxov-125">
          <mxGeometry x="7.5" width="35" height="20" as="geometry" />
        </mxCell>
        <mxCell id="3-DGFyrarjnQaaBnUxov-128" value="App Tier" style="text;html=1;strokeColor=none;fillColor=none;align=center;verticalAlign=middle;whiteSpace=wrap;rounded=0;fontSize=7;" vertex="1" parent="1">
          <mxGeometry x="-730" y="5" width="40" height="20" as="geometry" />
        </mxCell>
        <mxCell id="3-DGFyrarjnQaaBnUxov-129" value="" style="group" vertex="1" connectable="0" parent="1">
          <mxGeometry x="-655" y="5" width="50" height="20" as="geometry" />
        </mxCell>
        <mxCell id="3-DGFyrarjnQaaBnUxov-130" value="" style="rounded=0;whiteSpace=wrap;html=1;fontSize=7;fillColor=#dae8fc;strokeColor=#6c8ebf;" vertex="1" parent="3-DGFyrarjnQaaBnUxov-129">
          <mxGeometry y="5" width="50" height="10" as="geometry" />
        </mxCell>
        <mxCell id="3-DGFyrarjnQaaBnUxov-131" value="App Tier" style="text;html=1;strokeColor=none;fillColor=none;align=center;verticalAlign=middle;whiteSpace=wrap;rounded=0;fontSize=7;" vertex="1" parent="3-DGFyrarjnQaaBnUxov-129">
          <mxGeometry x="5" width="40" height="20" as="geometry" />
        </mxCell>
        <mxCell id="3-DGFyrarjnQaaBnUxov-132" value="DB Tier" style="text;html=1;strokeColor=none;fillColor=none;align=center;verticalAlign=middle;whiteSpace=wrap;rounded=0;fontSize=7;" vertex="1" parent="1">
          <mxGeometry x="-727.5" y="20" width="35" height="20" as="geometry" />
        </mxCell>
        <mxCell id="3-DGFyrarjnQaaBnUxov-133" value="DB Tier" style="text;html=1;strokeColor=none;fillColor=none;align=center;verticalAlign=middle;whiteSpace=wrap;rounded=0;fontSize=7;" vertex="1" parent="1">
          <mxGeometry x="-647.5" y="20" width="35" height="20" as="geometry" />
        </mxCell>
        <mxCell id="3-DGFyrarjnQaaBnUxov-134" value="lc-production" style="points=[[0,0],[0.25,0],[0.5,0],[0.75,0],[1,0],[1,0.25],[1,0.5],[1,0.75],[1,1],[0.75,1],[0.5,1],[0.25,1],[0,1],[0,0.75],[0,0.5],[0,0.25]];outlineConnect=0;gradientColor=none;html=1;whiteSpace=wrap;fontSize=12;fontStyle=0;shape=mxgraph.aws4.group;grIcon=mxgraph.aws4.group_vpc;strokeColor=#248814;fillColor=none;verticalAlign=top;align=left;spacingLeft=30;fontColor=#AAB7B8;dashed=0;" vertex="1" parent="1">
          <mxGeometry x="-220" y="480" width="380" height="170" as="geometry" />
        </mxCell>
        <mxCell id="3-DGFyrarjnQaaBnUxov-135" value="AZ-a" style="fillColor=none;strokeColor=#147EBA;dashed=1;verticalAlign=top;fontStyle=0;fontColor=#147EBA;" vertex="1" parent="1">
          <mxGeometry x="-190" y="510" width="100" height="130" as="geometry" />
        </mxCell>
        <mxCell id="3-DGFyrarjnQaaBnUxov-136" value="AZ-b" style="fillColor=none;strokeColor=#147EBA;dashed=1;verticalAlign=top;fontStyle=0;fontColor=#147EBA;" vertex="1" parent="1">
          <mxGeometry x="-80" y="510" width="100" height="130" as="geometry" />
        </mxCell>
        <mxCell id="3-DGFyrarjnQaaBnUxov-137" value="AZ-c" style="fillColor=none;strokeColor=#147EBA;dashed=1;verticalAlign=top;fontStyle=0;fontColor=#147EBA;" vertex="1" parent="1">
          <mxGeometry x="30" y="510" width="100" height="130" as="geometry" />
        </mxCell>
      </root>
    </mxGraphModel>
  </diagram>
</mxfile>
